# xmcd
#
# Track frame offsets:
#	150
#	17219
#	33950
#	51616
#	69803
#	87088
#	105524
#	124061
#	142911
#	162269
#	178874
#	196081
#	219832
#	240322
#
# Disc length: 3449 seconds
#
# Revision: 1
# Processed by: cddbd v1.5.1PL2 Copyright (c) Steve Scherf et al.
# Submitted via: audiograbber 1.83.01
#
DISCID=b10d770e
DTITLE=Various Artist - SBG010
DYEAR=1900
DGENRE=Other
TTITLE0=ATC - Around The World
TTITLE1=Enya - Only Time
TTITLE2=Joe Feat. Mystikal - Stutter
TTITLE3=Madonna - Music
TTITLE4=Britney Spears - Lucky
TTITLE5=Jennifer Lopez - Love Don't Cost A Thing
TTITLE6=Destiny's Child - Independent Women
TTITLE7=Jessica Simpson - I Wanna Love You Forever
TTITLE8=Shania Twain - I Wont Leave You Lonely
TTITLE9=Christina Aguilera - Come On Over
TTITLE10=Samantha Mumba - Gotta Tell You
TTITLE11=Britney Spears - From The Bottom Of My Broken Heart
TTITLE12=Phil Collins - You'll Be In My Heart
TTITLE13=Christina Aguilera - Genie In A Bottle
EXTD=
EXTT0=
EXTT1=
EXTT2=
EXTT3=
EXTT4=
EXTT5=
EXTT6=
EXTT7=
EXTT8=
EXTT9=
EXTT10=
EXTT11=
EXTT12=
EXTT13=
PLAYORDER=
